<svg width="48" height="48" viewBox="0 0 48 48" fill="none" xmlns="http://www.w3.org/2000/svg">
<rect width="48" height="48" rx="24" fill="#5865F2"/>
<path d="M33.0212 15.6767C31.3107 14.8797 29.5079 14.3188 27.6584 14C27.4062 14.4617 27.1749 14.9345 26.9708 15.4184C25.003 15.1215 22.9974 15.1215 21.0283 15.4184C20.819 14.9345 20.589 14.4617 20.3368 14.0055C18.4807 14.3244 16.678 14.8851 14.9675 15.6823C11.5673 20.7785 10.6497 25.7538 11.1111 30.652C13.101 32.1418 15.3262 33.2743 17.6918 34C18.2234 33.2743 18.6952 32.4993 19.0981 31.691C18.33 31.3997 17.5852 31.0424 16.8768 30.6135C17.0653 30.4762 17.2473 30.3387 17.424 30.1847C21.5911 32.1749 26.408 32.1749 30.5763 30.1847C30.7531 30.3332 30.9351 30.4762 31.1171 30.6135C30.41 31.0369 29.6639 31.3997 28.897 31.691C29.3052 32.4993 29.7718 33.2689 30.3021 33.9945C32.6677 33.2689 34.8929 32.1364 36.8828 30.6466H36.8893C37.43 24.9731 35.9665 20.0473 33.0212 15.6767ZM19.6804 27.6383C18.3975 27.6383 17.3409 26.4453 17.3409 24.994C17.3409 23.5427 18.3716 22.3497 19.6804 22.3497C20.9893 22.3497 22.0395 23.5427 22.0187 24.994C22.0187 26.4453 20.9828 27.6383 19.6804 27.6383ZM28.3161 27.6383C27.0332 27.6383 25.9765 26.4453 25.9765 24.994C25.9765 23.5427 27.0124 22.3497 28.3161 22.3497C29.6184 22.3497 30.6751 23.5427 30.6543 24.994C30.6543 26.4453 29.6184 27.6383 28.3161 27.6383Z" fill="white"/>
</svg>
